<svg width="1159" height="888" viewBox="0 0 1159 888" fill="none" xmlns="http://www.w3.org/2000/svg">
<g id="main">
<g id="topBase">
<rect id="Rectangle 38" x="48.5" y="2.5" width="1108" height="731" fill="#93A269" stroke="#19354D" stroke-width="5"/>
<rect id="Rectangle 39" x="2.5" y="2.5" width="1108" height="731" fill="#C8D176" stroke="#19354D" stroke-width="5"/>
<path id="Vector 1" d="M475.092 5H701L162.152 727H6V604.057L475.092 5Z" fill="url(#paint0_linear_28_109)"/>
<path id="Vector 2" d="M216 5H110.273L6 110.309V223L216 5Z" fill="url(#paint1_linear_28_109)"/>
<path id="Vector 3" d="M1108 501.553V421L802 730H890.068L1108 501.553Z" fill="url(#paint2_radial_28_109)"/>
<g id="Group 9">
<rect id="Rectangle 40" x="574" y="58" width="309" height="29" rx="14.5" fill="#19354D"/>
<rect id="Rectangle 41" x="636" y="101" width="247" height="29" rx="14.5" fill="#19354D"/>
<rect id="Rectangle 42" x="719" y="144" width="164" height="29" rx="14.5" fill="#19354D"/>
<rect id="Rectangle 43" x="607" y="187" width="276" height="29" rx="14.5" fill="#19354D"/>
<rect id="Rectangle 45" x="574" y="273" width="309" height="29" rx="14.5" fill="#19354D"/>
<rect id="Rectangle 46" x="636" y="316" width="247" height="29" rx="14.5" fill="#19354D"/>
<rect id="Rectangle 47" x="719" y="359" width="164" height="29" rx="14.5" fill="#19354D"/>
<rect id="Rectangle 48" x="682" y="402" width="201" height="29" rx="14.5" fill="#19354D"/>
<rect id="Rectangle 50" x="636" y="488" width="247" height="29" rx="14.5" fill="#19354D"/>
<rect id="Rectangle 51" x="607" y="531" width="276" height="29" rx="14.5" fill="#19354D"/>
<rect id="Rectangle 52" x="719" y="574" width="164" height="29" rx="14.5" fill="#19354D"/>
<rect id="Rectangle 53" x="789" y="617" width="94" height="29" rx="14.5" fill="#19354D"/>
</g>
<g id="Group 10">
<rect id="Rectangle 40_2" x="187" y="58" width="309" height="29" rx="14.5" fill="#19354D"/>
<rect id="Rectangle 41_2" x="249" y="101" width="247" height="29" rx="14.5" fill="#19354D"/>
<rect id="Rectangle 42_2" x="332" y="144" width="164" height="29" rx="14.5" fill="#19354D"/>
<rect id="Rectangle 43_2" x="220" y="187" width="276" height="29" rx="14.5" fill="#19354D"/>
<rect id="Rectangle 45_2" x="187" y="273" width="309" height="29" rx="14.5" fill="#19354D"/>
<rect id="Rectangle 46_2" x="249" y="316" width="247" height="29" rx="14.5" fill="#19354D"/>
<rect id="Rectangle 47_2" x="332" y="359" width="164" height="29" rx="14.5" fill="#19354D"/>
<rect id="Rectangle 48_2" x="295" y="402" width="201" height="29" rx="14.5" fill="#19354D"/>
<rect id="Rectangle 50_2" x="249" y="488" width="247" height="29" rx="14.5" fill="#19354D"/>
<rect id="Rectangle 51_2" x="220" y="531" width="276" height="29" rx="14.5" fill="#19354D"/>
<rect id="Rectangle 52_2" x="332" y="574" width="164" height="29" rx="14.5" fill="#19354D"/>
<rect id="Rectangle 53_2" x="402" y="617" width="94" height="29" rx="14.5" fill="#19354D"/>
</g>
<rect id="Rectangle 54" x="973" y="58" width="94" height="29" rx="14.5" fill="#19354D"/>
<rect id="Rectangle 66" x="44" y="58" width="64" height="29" rx="14.5" fill="#19354D"/>
<rect id="Rectangle 55" x="973" y="111" width="94" height="29" rx="14.5" fill="#19354D"/>
<rect id="Rectangle 67" x="44" y="111" width="64" height="29" rx="14.5" fill="#19354D"/>
<rect id="Rectangle 56" x="973" y="164" width="94" height="29" rx="14.5" fill="#19354D"/>
<rect id="Rectangle 68" x="44" y="164" width="64" height="29" rx="14.5" fill="#19354D"/>
<rect id="Rectangle 58" x="973" y="270" width="94" height="29" rx="14.5" fill="#19354D"/>
<rect id="Rectangle 69" x="44" y="270" width="64" height="29" rx="14.5" fill="#19354D"/>
<rect id="Rectangle 59" x="973" y="323" width="94" height="29" rx="14.5" fill="#19354D"/>
<rect id="Rectangle 70" x="44" y="323" width="64" height="29" rx="14.5" fill="#19354D"/>
<rect id="Rectangle 60" x="973" y="376" width="94" height="29" rx="14.5" fill="#19354D"/>
<rect id="Rectangle 71" x="44" y="376" width="64" height="29" rx="14.5" fill="#19354D"/>
<rect id="Rectangle 62" x="973" y="482" width="94" height="29" rx="14.5" fill="#19354D"/>
<rect id="Rectangle 72" x="44" y="482" width="64" height="29" rx="14.5" fill="#19354D"/>
<rect id="Rectangle 63" x="973" y="535" width="94" height="29" rx="14.5" fill="#19354D"/>
<rect id="Rectangle 73" x="44" y="535" width="64" height="29" rx="14.5" fill="#19354D"/>
<rect id="Rectangle 64" x="973" y="588" width="94" height="29" rx="14.5" fill="#19354D"/>
<rect id="Rectangle 74" x="44" y="588" width="64" height="29" rx="14.5" fill="#19354D"/>
<rect id="Rectangle 65" x="973" y="641" width="94" height="29" rx="14.5" fill="#19354D"/>
<rect id="Rectangle 75" x="44" y="641" width="64" height="29" rx="14.5" fill="#19354D"/>
<path id="Rectangle 76" d="M1154 461.5L1113 421V507.5L1154 553.5V461.5Z" fill="#D6DC9B" fill-opacity="0.68"/>
<path id="Rectangle 77" d="M1154 132.5L1113 92V178.5L1154 224.5V132.5Z" fill="#D6DC9B" fill-opacity="0.68"/>
</g>
<g id="bottomBase">
<rect id="Rectangle 78" x="2.5" y="726.5" width="1104" height="159" fill="#4BABD0" stroke="#19354D" stroke-width="5"/>
<rect id="Rectangle 79" x="2" y="685" width="1105" height="37" fill="#5B5B63" stroke="#19354D" stroke-width="4"/>
<path id="Rectangle 80" d="M1111.5 882.927V725.575L1156.5 688.316V848.362L1111.5 882.927Z" fill="#3E86A8" stroke="#19354D" stroke-width="5"/>
<path id="Rectangle 81" d="M1111 719.791V684.265L1157 649.985V682.311L1111 719.791Z" fill="#5B5B63" stroke="#19354D" stroke-width="4"/>
</g>
<g id="bottomBar">
<rect id="Rectangle 82" x="501.5" y="743.5" width="562" height="89" fill="#F4CAA3" stroke="#19354D" stroke-width="5"/>
<rect id="Rectangle 83" x="514" y="755" width="273" height="65" fill="#19354D" stroke="#19354D" stroke-width="4"/>
<path id="Vector 4" d="M556 754H534.5L517 821H538L556 754Z" fill="#019ADD"/>
<path id="Vector 5" d="M589 754H567.5L550 821H571L589 754Z" fill="#019ADD"/>
<path id="Vector 6" d="M622 754H600.5L583 821H604L622 754Z" fill="#019ADD"/>
<path id="Vector 7" d="M655 754H633.5L616 821H637L655 754Z" fill="#019ADD"/>
<path id="Vector 8" d="M688 754H666.5L649 821H670L688 754Z" fill="#019ADD"/>
<path id="Vector 9" d="M721 754H699.5L682 821H703L721 754Z" fill="#019ADD"/>
<path id="Vector 10" d="M754 754H732.5L715 821H736L754 754Z" fill="#019ADD"/>
<path id="Vector 11" d="M787 754H765.5L748 821H769L787 754Z" fill="#019ADD"/>
<rect id="Rectangle 84" x="790" y="754" width="7" height="67" fill="#FD8526" stroke="#19354D" stroke-width="2"/>
<rect id="Rectangle 85" x="800" y="755" width="247" height="64" fill="white" stroke="#19354D" stroke-width="4"/>
</g>
<rect id="l23" x="501.5" y="841.5" width="16" height="37" rx="8" fill="#576571" stroke="#19354D" stroke-width="3"/>
<rect id="l22" x="527.5" y="841.5" width="16" height="37" rx="8" fill="#576571" stroke="#19354D" stroke-width="3"/>
<rect id="l21" x="553.5" y="841.5" width="16" height="37" rx="8" fill="#576571" stroke="#19354D" stroke-width="3"/>
<rect id="l20" x="579.5" y="841.5" width="16" height="37" rx="8" fill="#576571" stroke="#19354D" stroke-width="3"/>
<rect id="l19" x="605.5" y="841.5" width="16" height="37" rx="8" fill="#576571" stroke="#19354D" stroke-width="3"/>
<rect id="l18" x="631.5" y="841.5" width="16" height="37" rx="8" fill="#576571" stroke="#19354D" stroke-width="3"/>
<rect id="l17" x="657.5" y="841.5" width="16" height="37" rx="8" fill="#576571" stroke="#19354D" stroke-width="3"/>
<rect id="l16" x="683.5" y="841.5" width="16" height="37" rx="8" fill="#576571" stroke="#19354D" stroke-width="3"/>
<rect id="l15" x="709.5" y="841.5" width="16" height="37" rx="8" fill="#576571" stroke="#19354D" stroke-width="3"/>
<rect id="l14" x="735.5" y="841.5" width="16" height="37" rx="8" fill="#576571" stroke="#19354D" stroke-width="3"/>
<rect id="l13" x="761.5" y="841.5" width="16" height="37" rx="8" fill="#576571" stroke="#19354D" stroke-width="3"/>
<rect id="l12" x="787.5" y="841.5" width="16" height="37" rx="8" fill="#576571" stroke="#19354D" stroke-width="3"/>
<rect id="l11" x="813.5" y="841.5" width="16" height="37" rx="8" fill="#576571" stroke="#19354D" stroke-width="3"/>
<rect id="l10" x="839.5" y="841.5" width="16" height="37" rx="8" fill="#576571" stroke="#19354D" stroke-width="3"/>
<rect id="l9" x="865.5" y="841.5" width="16" height="37" rx="8" fill="#576571" stroke="#19354D" stroke-width="3"/>
<rect id="l8" x="891.5" y="841.5" width="16" height="37" rx="8" fill="#576571" stroke="#19354D" stroke-width="3"/>
<rect id="l7" x="917.5" y="841.5" width="16" height="37" rx="8" fill="#576571" stroke="#19354D" stroke-width="3"/>
<rect id="l6" x="943.5" y="841.5" width="16" height="37" rx="8" fill="#576571" stroke="#19354D" stroke-width="3"/>
<rect id="l5" x="969.5" y="841.5" width="16" height="37" rx="8" fill="#576571" stroke="#19354D" stroke-width="3"/>
<rect id="l4" x="995.5" y="841.5" width="16" height="37" rx="8" fill="#576571" stroke="#19354D" stroke-width="3"/>
<rect id="l3" x="1021.5" y="841.5" width="16" height="37" rx="8" fill="#576571" stroke="#19354D" stroke-width="3"/>
<rect id="l2" x="1047.5" y="841.5" width="16" height="37" rx="8" fill="#576571" stroke="#19354D" stroke-width="3"/>
<rect id="l1" x="21" y="744" width="450" height="125" fill="#4E77CF" stroke="#19354D" stroke-width="6"/>
<path id="M2SI | DP" d="M153.284 785.538C154.317 785.538 155.206 785.91 155.95 786.654C156.735 787.357 157.128 788.245 157.128 789.32V825.218C157.128 826.293 156.777 827.202 156.074 827.946C155.371 828.649 154.441 829 153.284 829C152.127 829 151.176 828.649 150.432 827.946C149.729 827.243 149.378 826.334 149.378 825.218V800.232L139.148 815.856C138.735 816.352 138.259 816.765 137.722 817.096C137.185 817.385 136.627 817.509 136.048 817.468C135.511 817.509 134.973 817.385 134.436 817.096C133.899 816.765 133.423 816.352 133.01 815.856L122.78 799.674V825.218C122.78 826.334 122.449 827.243 121.788 827.946C121.127 828.649 120.259 829 119.184 829C118.151 829 117.303 828.649 116.642 827.946C115.981 827.202 115.65 826.293 115.65 825.218V789.32C115.65 788.287 116.022 787.398 116.766 786.654C117.551 785.91 118.481 785.538 119.556 785.538C120.176 785.538 120.796 785.703 121.416 786.034C122.036 786.323 122.511 786.716 122.842 787.212L136.358 807.982L150.246 787.212C150.577 786.716 151.011 786.323 151.548 786.034C152.127 785.703 152.705 785.538 153.284 785.538ZM189.699 822.18C190.691 822.18 191.517 822.511 192.179 823.172C192.84 823.833 193.171 824.66 193.171 825.652C193.171 826.603 192.84 827.409 192.179 828.07C191.517 828.69 190.691 829 189.699 829H168.619C167.544 829 166.697 828.669 166.077 828.008C165.457 827.347 165.147 826.499 165.147 825.466C165.147 824.433 165.519 823.523 166.263 822.738L179.779 808.292C181.308 806.639 182.507 804.985 183.375 803.332C184.284 801.637 184.739 800.087 184.739 798.682C184.739 796.822 184.077 795.21 182.755 793.846C181.432 792.482 179.903 791.8 178.167 791.8C176.968 791.8 175.749 792.213 174.509 793.04C173.31 793.825 172.215 794.879 171.223 796.202C170.479 797.194 169.528 797.69 168.371 797.69C167.461 797.69 166.614 797.339 165.829 796.636C165.085 795.933 164.713 795.148 164.713 794.28C164.713 793.66 164.919 793.04 165.333 792.42C165.746 791.759 166.366 791.015 167.193 790.188C168.763 788.617 170.582 787.357 172.649 786.406C174.715 785.455 176.699 784.98 178.601 784.98C181.329 784.98 183.726 785.559 185.793 786.716C187.859 787.873 189.451 789.465 190.567 791.49C191.683 793.515 192.241 795.809 192.241 798.372C192.241 800.893 191.559 803.497 190.195 806.184C188.872 808.829 187.074 811.371 184.801 813.81L176.927 822.18H189.699ZM213.639 829.62C210.663 829.62 208.018 829.248 205.703 828.504C203.388 827.76 201.218 826.499 199.193 824.722C198.077 823.73 197.519 822.635 197.519 821.436C197.519 820.485 197.87 819.659 198.573 818.956C199.276 818.212 200.123 817.84 201.115 817.84C201.9 817.84 202.603 818.088 203.223 818.584C204.876 819.948 206.488 820.94 208.059 821.56C209.63 822.18 211.49 822.49 213.639 822.49C215.954 822.49 217.938 821.973 219.591 820.94C221.286 819.907 222.133 818.625 222.133 817.096C222.133 815.236 221.306 813.789 219.653 812.756C218 811.681 215.375 810.875 211.779 810.338C202.727 809.015 198.201 804.799 198.201 797.69C198.201 795.086 198.883 792.833 200.247 790.932C201.611 788.989 203.471 787.522 205.827 786.53C208.183 785.497 210.808 784.98 213.701 784.98C216.305 784.98 218.744 785.373 221.017 786.158C223.332 786.943 225.254 787.977 226.783 789.258C227.982 790.209 228.581 791.304 228.581 792.544C228.581 793.495 228.23 794.342 227.527 795.086C226.824 795.789 225.998 796.14 225.047 796.14C224.427 796.14 223.869 795.954 223.373 795.582C222.298 794.714 220.79 793.929 218.847 793.226C216.946 792.482 215.23 792.11 213.701 792.11C211.097 792.11 209.072 792.606 207.625 793.598C206.22 794.549 205.517 795.809 205.517 797.38C205.517 799.157 206.24 800.501 207.687 801.41C209.175 802.319 211.49 803.063 214.631 803.642C218.186 804.262 221.017 805.068 223.125 806.06C225.274 807.011 226.886 808.333 227.961 810.028C229.036 811.681 229.573 813.893 229.573 816.662C229.573 819.266 228.829 821.56 227.341 823.544C225.894 825.487 223.952 826.995 221.513 828.07C219.074 829.103 216.45 829.62 213.639 829.62ZM244.433 825.218C244.433 826.293 244.041 827.202 243.255 827.946C242.47 828.649 241.561 829 240.527 829C239.411 829 238.481 828.649 237.737 827.946C237.035 827.202 236.683 826.293 236.683 825.218V789.382C236.683 788.307 237.055 787.419 237.799 786.716C238.543 785.972 239.494 785.6 240.651 785.6C241.685 785.6 242.573 785.972 243.317 786.716C244.061 787.419 244.433 788.307 244.433 789.382V825.218ZM273.614 840.16C273.614 840.491 273.49 840.78 273.242 841.028C273.036 841.276 272.746 841.4 272.374 841.4C272.002 841.4 271.692 841.276 271.444 841.028C271.238 840.78 271.134 840.491 271.134 840.16V781.88C271.134 781.549 271.238 781.26 271.444 781.012C271.692 780.764 272.002 780.64 272.374 780.64C272.746 780.64 273.036 780.764 273.242 781.012C273.49 781.26 273.614 781.549 273.614 781.88V840.16ZM318.252 785.6C322.137 785.6 325.465 786.571 328.234 788.514C331.045 790.415 333.173 793.019 334.62 796.326C336.108 799.591 336.852 803.249 336.852 807.3C336.852 811.351 336.108 815.029 334.62 818.336C333.173 821.601 331.045 824.205 328.234 826.148C325.465 828.049 322.137 829 318.252 829H303.434C302.359 829 301.45 828.649 300.706 827.946C300.003 827.202 299.652 826.293 299.652 825.218V789.382C299.652 788.307 300.003 787.419 300.706 786.716C301.45 785.972 302.359 785.6 303.434 785.6H318.252ZM317.632 821.87C321.352 821.87 324.142 820.506 326.002 817.778C327.862 815.009 328.792 811.516 328.792 807.3C328.792 803.084 327.841 799.612 325.94 796.884C324.08 794.115 321.311 792.73 317.632 792.73H307.402V821.87H317.632ZM361.89 785.6C363.998 785.6 366.003 786.241 367.904 787.522C369.806 788.762 371.335 790.457 372.492 792.606C373.65 794.714 374.228 797.029 374.228 799.55C374.228 802.03 373.65 804.345 372.492 806.494C371.335 808.643 369.806 810.359 367.904 811.64C366.003 812.88 363.998 813.5 361.89 813.5H351.102V825.218C351.102 826.334 350.772 827.243 350.11 827.946C349.449 828.649 348.581 829 347.506 829C346.473 829 345.626 828.649 344.964 827.946C344.303 827.202 343.972 826.293 343.972 825.218V789.382C343.972 788.307 344.324 787.419 345.026 786.716C345.77 785.972 346.68 785.6 347.754 785.6H361.89ZM361.89 806.432C362.676 806.432 363.44 806.101 364.184 805.44C364.97 804.779 365.59 803.931 366.044 802.898C366.54 801.823 366.788 800.707 366.788 799.55C366.788 798.393 366.54 797.297 366.044 796.264C365.59 795.189 364.97 794.342 364.184 793.722C363.44 793.061 362.676 792.73 361.89 792.73H351.102V806.432H361.89Z" fill="#19364E"/>
</g>
<defs>
<linearGradient id="paint0_linear_28_109" x1="568.147" y1="5" x2="-29.0129" y2="932.226" gradientUnits="userSpaceOnUse">
<stop stop-color="#DCE1AC"/>
<stop offset="1" stop-color="#DCE1AC" stop-opacity="0"/>
</linearGradient>
<linearGradient id="paint1_linear_28_109" x1="111" y1="4.99999" x2="-84.7907" y2="305.542" gradientUnits="userSpaceOnUse">
<stop stop-color="#DCE1AC"/>
<stop offset="1" stop-color="#DCE1AC" stop-opacity="0"/>
</linearGradient>
<radialGradient id="paint2_radial_28_109" cx="0" cy="0" r="1" gradientUnits="userSpaceOnUse" gradientTransform="translate(999.532 655.84) rotate(148.755) scale(400.98 319.808)">
<stop stop-color="#DCE1AC"/>
<stop offset="1" stop-color="#DCE1AC" stop-opacity="0"/>
</radialGradient>
</defs>
</svg>
